<svg width="81" height="80" viewBox="0 0 81 80" fill="none" xmlns="http://www.w3.org/2000/svg">
<path d="M16.3293 55.2199C13.5759 50.7957 11.9757 45.5714 11.9757 39.9824C11.9757 24.0506 24.9423 11.084 40.8741 11.084C46.4631 11.084 51.6756 12.6842 56.1116 15.4376L64.101 7.44815C57.5589 2.76511 49.5459 0 40.8858 0C18.812 0 0.915234 17.8968 0.915234 39.9706C0.915234 48.6307 3.68034 56.6436 8.36339 63.1858L16.3528 55.1964L16.3293 55.2199Z" fill="white"/>
<path d="M72.1262 15.0957L64.2192 23.0027C67.7021 27.7799 69.7612 33.6514 69.7612 39.9935C69.7612 55.9252 56.7946 68.8918 40.8628 68.8918C34.5089 68.8918 28.6375 66.8327 23.8721 63.3499L15.965 71.2569C22.8013 76.7048 31.4497 79.9758 40.8628 79.9758C62.9366 79.9758 80.8334 62.0791 80.8334 40.0052C80.8334 30.5921 77.5623 21.932 72.1145 15.1075L72.1262 15.0957Z" fill="white"/>
</svg>
