<svg width="50" height="80" viewBox="0 0 50 80" fill="none" xmlns="http://www.w3.org/2000/svg">
<path d="M36.0406 38.8997C42.4651 35.5816 44.1006 27.7216 44.1006 19.9911C44.1006 8.96593 35.1581 0.0234375 24.133 0.0234375H10.5898V0.0705032H0V79.9528H10.5898H28.4395C40.253 79.9528 49.8308 70.375 49.8308 58.5615C49.8308 48.407 45.5243 41.0765 36.0406 38.888V38.8997ZM33.1225 22.1679C33.1225 28.2864 28.1688 34.405 22.0503 34.405H11.0722V11.0957H22.0503C28.1688 11.0957 33.1225 16.0493 33.1225 22.1679ZM26.2862 68.8806H11.0722V45.4889H26.2744C33.0519 45.4889 38.5586 49.819 38.5586 56.6082C38.5586 63.3975 33.0637 68.8924 26.2744 68.8924L26.2862 68.8806Z" fill="white"/>
</svg>
